<?xml version="1.0" encoding="UTF-8" standalone="no"?>
<svg
   viewBox="0 0 448 512"
   version="1.1"
   id="svg1"
   sodipodi:docname="clip.svg"
   inkscape:version="1.3.2 (091e20e, 2023-11-25, custom)"
   xmlns:inkscape="http://www.inkscape.org/namespaces/inkscape"
   xmlns:sodipodi="http://sodipodi.sourceforge.net/DTD/sodipodi-0.dtd"
   xmlns="http://www.w3.org/2000/svg"
   xmlns:svg="http://www.w3.org/2000/svg">
  <defs
     id="defs1" />
  <sodipodi:namedview
     id="namedview1"
     pagecolor="#ffffff"
     bordercolor="#000000"
     borderopacity="0.25"
     inkscape:showpageshadow="2"
     inkscape:pageopacity="0.0"
     inkscape:pagecheckerboard="0"
     inkscape:deskcolor="#d1d1d1"
     showgrid="false"
     inkscape:zoom="0.73828125"
     inkscape:cx="371.80952"
     inkscape:cy="193.69312"
     inkscape:window-width="1920"
     inkscape:window-height="986"
     inkscape:window-x="-11"
     inkscape:window-y="-11"
     inkscape:window-maximized="1"
     inkscape:current-layer="svg1" />
  <!--!Font Awesome Free 6.6.0 by @fontawesome - https://fontawesome.com License - https://fontawesome.com/license/free Copyright 2024 Fonticons, Inc.-->
  <path
     d="m 365.5545,82.445503 c -24.4,-24.4 -64,-24.4 -88.4,0 L 93.154501,266.44551 c -42.100003,42.1 -42.100003,110.3 0,152.4 42.099999,42.1 110.299999,42.1 152.399999,0 l 152,-152 c 10.9,-10.9 28.7,-10.9 39.6,0 10.9,10.9 10.9,28.7 0,39.6 l -152,152 c -64,64 -167.6,64 -231.600002,0 -64.000001,-64 -64.000001,-167.6 0,-231.6 L 237.5545,42.845503 c 46.3,-46.3000004 121.3,-46.3000004 167.6,0 46.3,46.3 46.3,121.300007 0,167.600007 l -176,176 c -28.6,28.6 -75,28.6 -103.6,0 -28.599999,-28.6 -28.599999,-75 0,-103.6 l 144,-144.00001 c 10.9,-10.9 28.7,-10.9 39.6,0 10.9,10.9 10.9,28.70001 0,39.60001 l -144,144 c -6.7,6.7 -6.7,17.7 0,24.4 6.7,6.7 17.7,6.7 24.4,0 l 176,-176 c 24.4,-24.40001 24.4,-64.00001 0,-88.400007 z"
     id="path1" />
  <path
     style="fill:#ffffff;stroke-width:1.3545"
     d="M 148.31746,504.4545 C 94.702951,497.09697 48.075727,463.66694 23.762905,415.15344 10.782089,389.25168 6.1239832,367.17197 7.1891033,336.59259 8.1139307,310.04099 12.065389,293.71185 22.962478,271.41016 34.452706,247.89455 36.058037,246.12093 142.09838,139.78503 197.66703,84.061509 246.17989,36.112414 249.90476,33.231487 307.8734,-11.603226 394.15631,8.5209263 426.60624,74.444377 c 9.12879,18.545529 11.55426,29.503593 11.55426,52.201123 0,16.3984 -0.51122,21.4288 -3.09716,30.47619 -4.40435,15.40943 -12.44471,30.91135 -22.50863,43.39689 -11.23168,13.93431 -186.35839,188.4939 -194.80523,194.1744 -3.53092,2.37453 -10.54044,5.94283 -15.57672,7.92954 -8.0729,3.1846 -11.00085,3.60799 -24.73361,3.57651 -17.77662,-0.0408 -26.44736,-2.45299 -39.18846,-10.90239 -32.2189,-21.36629 -42.170935,-61.00244 -24.09227,-95.95272 3.50648,-6.77884 17.0241,-20.98331 81.48831,-85.62871 56.57321,-56.73224 78.71612,-78.09211 82.62665,-79.70471 13.39579,-5.52408 28.4891,-0.46395 34.59434,11.59797 3.75632,7.42123 4.5249,13.20313 2.67399,20.11576 -1.55011,5.78919 -7.77464,12.41323 -77.19412,82.14879 -41.52943,41.71851 -76.18504,77.18321 -77.01248,78.81042 -4.3846,8.62266 0.50911,21.11076 9.63354,24.58356 11.62488,4.42445 6.46434,8.84517 107.58045,-92.15748 69.79369,-69.71537 93.48642,-94.19799 97.14687,-100.38563 15.81385,-26.7318 9.26185,-62.366788 -14.97512,-81.446592 C 341.51498,62.158068 315.36728,59.483021 293.24868,70.374539 284.39908,74.732205 277.03258,81.795412 182.7146,176.35765 76.055637,283.29284 75.844367,283.52773 68.279012,303.5843 c -23.130703,61.322 11.327576,127.85728 74.620458,144.08417 14.9548,3.83408 37.91395,3.83658 52.8254,0.006 12.17152,-3.12694 24.55978,-8.5684 34.17337,-15.01042 3.55385,-2.38142 43.6425,-41.35203 89.08589,-86.60135 71.14585,-70.84206 83.51818,-82.60305 89.05837,-84.65793 22.37155,-8.29775 43.74679,14.94639 33.64339,36.58492 -1.72571,3.69596 -29.16114,31.93537 -86.31946,88.84901 -69.15332,68.85728 -85.82842,84.76969 -95.46078,91.09455 -18.55031,12.18063 -37.10871,19.94873 -58.76279,24.59667 -12.03623,2.58353 -40.47461,3.61976 -52.8254,1.92485 z"
     id="path2"
     inkscape:export-filename="path2.svg"
     inkscape:export-xdpi="96"
     inkscape:export-ydpi="96" />
</svg>
